<?xml version="1.0" standalone="no"?>
<!DOCTYPE svg PUBLIC "-//W3C//DTD SVG 20010904//EN"
 "http://www.w3.org/TR/2001/REC-SVG-20010904/DTD/svg10.dtd">
<svg version="1.0" xmlns="http://www.w3.org/2000/svg"
 width="256.000000pt" height="256.000000pt" viewBox="0 0 256.000000 256.000000"
 preserveAspectRatio="xMidYMid meet">
<metadata>
Created by potrace 1.11, written by Peter Selinger 2001-2013
</metadata>
<g transform="translate(0.000000,256.000000) scale(0.100000,-0.100000)"
fill="#000000" stroke="none">
<path d="M969 2535 c-106 -39 -264 -127 -360 -201 -56 -43 -208 -204 -253
-268 -66 -92 -140 -241 -175 -351 -27 -81 -37 -125 -57 -250 -12 -71 -7 -278
10 -372 89 -514 465 -919 968 -1047 51 -13 125 -27 163 -31 99 -10 284 -8 337
4 25 6 61 12 80 15 128 16 342 109 493 214 76 54 281 249 271 259 -2 3 -42 -4
-88 -16 -210 -51 -457 -46 -667 15 -337 97 -641 350 -795 660 -41 83 -78 173
-91 224 -41 155 -48 205 -49 360 -3 249 70 501 203 705 25 38 50 76 54 83 10
15 2 14 -44 -3z"/>
</g>
</svg>
