<?xml version="1.0" standalone="no"?>
<!DOCTYPE svg PUBLIC "-//W3C//DTD SVG 20010904//EN"
 "http://www.w3.org/TR/2001/REC-SVG-20010904/DTD/svg10.dtd">
<svg version="1.0" xmlns="http://www.w3.org/2000/svg"
 width="267.000000pt" height="267.000000pt" viewBox="0 0 267.000000 267.000000"
 preserveAspectRatio="xMidYMid meet">
<metadata>
Created by potrace 1.11, written by Peter Selinger 2001-2013
</metadata>
<g transform="translate(0.000000,267.000000) scale(0.100000,-0.100000)"
fill="#000000" stroke="none">
<path d="M1200 2624 c-457 -57 -830 -320 -1031 -729 -84 -171 -119 -312 -126
-511 -11 -293 54 -527 214 -769 187 -281 482 -479 823 -552 119 -25 390 -25
510 1 387 83 711 330 890 678 100 193 143 377 143 603 -1 351 -129 654 -382
906 -188 186 -405 303 -661 354 -75 15 -315 27 -380 19z m30 -1384 c0 -343 0
-350 -20 -350 -20 0 -20 7 -20 350 0 343 0 350 20 350 20 0 20 -7 20 -350z
m718 321 c21 -13 10 -46 -16 -49 -27 -4 -40 22 -22 43 14 17 20 18 38 6z
m-1365 -243 l58 -123 48 102 c27 56 52 111 56 122 4 14 15 21 30 21 l24 0 -33
-72 c-74 -161 -121 -257 -126 -257 -3 0 -36 66 -74 147 -39 81 -74 155 -78
165 -7 14 -4 17 14 17 20 0 32 -18 81 -122z m461 97 c34 -23 36 -23 36 -5 0
13 7 20 20 20 19 0 20 -7 20 -160 0 -153 -1 -160 -20 -160 -15 0 -20 7 -20 28
0 15 -4 22 -8 16 -32 -47 -132 -59 -190 -24 -46 28 -76 97 -70 162 12 120 138
187 232 123z m472 9 c46 -22 76 -66 82 -120 l5 -44 -132 0 c-126 0 -131 -1
-131 -21 0 -12 15 -36 34 -55 44 -44 102 -47 158 -9 29 20 38 22 47 11 8 -9 5
-18 -12 -33 -36 -33 -63 -43 -114 -43 -138 0 -210 162 -121 275 41 53 120 69
184 39z m328 7 c14 -22 -6 -39 -39 -34 -29 5 -39 0 -65 -25 l-30 -30 0 -117
c0 -106 -2 -116 -17 -113 -16 3 -18 20 -21 161 -2 152 -2 157 18 157 11 0 20
-7 20 -16 0 -13 5 -12 26 5 27 22 98 29 108 12z m106 -152 c0 -147 -1 -160
-17 -157 -16 3 -18 20 -21 161 -2 152 -2 157 18 157 19 0 20 -6 20 -161z m310
139 c46 -32 68 -66 76 -115 l7 -43 -137 0 c-88 0 -136 -4 -136 -10 0 -26 33
-71 62 -86 41 -21 111 -14 142 15 17 16 25 18 34 9 18 -18 15 -25 -25 -53 -49
-33 -130 -35 -180 -4 -71 44 -95 157 -49 233 44 73 140 98 206 54z"/>
<path d="M923 1385 c-17 -7 -39 -28 -49 -46 -53 -103 26 -220 127 -190 56 17
79 52 79 120 0 66 -17 97 -66 117 -41 17 -50 17 -91 -1z"/>
<path d="M1403 1385 c-29 -12 -63 -58 -63 -85 0 -6 40 -10 110 -10 73 0 110 4
110 11 0 24 -36 70 -66 84 -39 18 -50 18 -91 0z"/>
<path d="M2143 1385 c-28 -12 -73 -66 -73 -87 0 -5 52 -8 115 -8 l115 0 -13
32 c-24 60 -89 88 -144 63z"/>
</g>
</svg>
